<svg width="154" height="152" viewBox="0 0 154 152" fill="none" xmlns="http://www.w3.org/2000/svg">
<rect width="153.118" height="151.253" rx="75.6263" fill="#314AE2"/>
<path d="M96.2877 17.3973L99.7361 26.9737L99.2515 28.4318L96.7749 27.6087L93.7746 18.8496L91.5929 20.0778L89.8544 25.3087L86.9381 24.3395L92.3228 8.13766L95.2391 9.1069L92.916 16.0968L101.519 11.1684L103.926 11.9684L103.434 13.4497L96.2877 17.3973Z" fill="white"/>
<path d="M105.132 32.0718L115.979 18.8866L118.352 20.839L109.288 31.858L115.089 36.6304L113.307 38.7966L105.132 32.0718Z" fill="white"/>
<path d="M137.223 43.5814L126.494 56.19L125.058 56.9685L123.814 54.6738L126.613 51.4933L125.587 50.8286L122.996 46.0463L122.999 44.8239L118.807 45.431L117.564 43.1364L119 42.3579L135.41 40.236L137.223 43.5814ZM125.377 44.451L128.224 49.7051L134.065 43.1286L125.377 44.451Z" fill="white"/>
<path d="M139.01 75.9092C136.725 76.0994 134.627 75.0013 133.428 73.2411L129.652 76.6881L128.024 76.8237L127.811 74.2715L132.438 70.46L132.434 70.4114L132.12 66.6439L127.21 67.0526L126.956 63.99L143.97 62.5737L144.53 69.3066C144.81 72.6608 142.316 75.634 139.01 75.9092ZM141.405 65.871L134.94 66.4092L135.253 70.1767C135.383 71.7323 136.878 72.9295 138.749 72.7737C140.596 72.6199 141.848 71.1941 141.717 69.6142L141.405 65.871Z" fill="white"/>
<path d="M132.603 114.068L130.491 112.849L132.517 108.555L120.18 101.436L121.704 98.7955L134.041 105.914L136.744 102.011L138.857 103.23L132.603 114.068Z" fill="white"/>
<path d="M112.656 111.006L124.221 123.565L121.978 125.63L110.413 113.071L112.656 111.006Z" fill="white"/>
<path d="M103.347 118.584L110.776 133.956L108.009 135.294L101.8 122.447L95.0367 125.716L93.8161 123.191L103.347 118.584Z" fill="white"/>
<path d="M75.5248 126.222L73.1793 143.133L61.5105 141.515L61.8992 138.712L70.5239 139.909L71.1103 135.681L66.1355 134.621L66.427 132.52L71.5024 132.854L72.0921 128.602L63.4674 127.406L63.8561 124.603L75.5248 126.222Z" fill="white"/>
<path d="M36.7736 130.299L34.1706 128.665L43.2464 114.204L46.0354 115.955L46.9111 131.536L53.5964 120.7L56.1994 122.334L47.1236 136.795L44.3347 135.044L43.4589 119.463L36.7736 130.299Z" fill="white"/>
<path d="M29.2651 93.1804C30.5346 96.4812 29.2089 100.101 26.2863 101.199L25.1831 98.3304C26.6121 97.8331 27.2302 95.9751 26.5561 94.2223C25.9082 92.5377 24.3217 91.6061 23.1151 92.0701C20.4517 93.0945 24.8889 101.031 19.5848 103.071C16.8303 104.13 13.8096 102.391 12.6714 99.4317C11.5332 96.4723 12.7222 93.245 15.3174 92.2469L16.4031 95.0697C15.2648 95.5075 14.792 96.9959 15.3436 98.4301C15.8864 99.8415 17.2243 100.738 18.4763 100.257C21.3219 99.1621 16.7533 91.2242 21.9892 89.2105C24.735 88.1283 28.013 89.925 29.2651 93.1804Z" fill="white"/>
<path d="M8.7005 66.8112L8.87093 63.7427L25.9178 64.6896L25.7352 67.9772L12.5226 76.2816L25.2402 76.8903L25.0697 79.9587L8.02284 79.0119L8.20544 75.7243L21.418 67.4198L8.7005 66.8112Z" fill="white"/>
<path d="M17.3074 40.9648L33.7287 43.0653L35.1656 43.8437L33.9224 46.1384L29.7297 45.5312L29.7332 46.7537L27.1422 51.5359L26.1163 52.2007L28.9148 55.3812L27.6716 57.6758L26.2348 56.8974L15.4949 44.3102L17.3074 40.9648ZM24.5054 50.4125L27.3519 45.1584L18.6529 43.8575L24.5054 50.4125Z" fill="white"/>
<path d="M39.3869 26.8212L49.2871 29.184L50.2413 30.3884L48.1958 32.009L39.2246 29.7192L39.0566 32.2172L42.4797 36.5377L40.0709 38.4462L29.4685 25.064L31.8773 23.1555L36.4515 28.929L37.043 19.0318L39.0312 17.4566L40.0006 18.6801L39.3869 26.8212Z" fill="white"/>
<path d="M56.047 9.36444C59.1203 8.40535 62.3106 9.78595 63.1461 12.4635C64.6865 17.3994 59.0748 16.7745 60.0993 20.0574L60.4262 21.1051L57.4926 22.0206L57.1656 20.9729C55.5308 15.7342 61.006 15.8397 60.2358 13.3717C59.8798 12.2308 58.3784 11.6774 56.9116 12.1351C55.4913 12.5783 54.6178 13.8729 54.9738 15.0138L52.0635 15.922C51.2279 13.2445 53.0202 10.309 56.047 9.36444ZM59.3518 22.8201C60.3995 22.4932 61.4993 23.0698 61.8262 24.1175C62.1532 25.1652 61.5766 26.265 60.5288 26.592C59.4811 26.9189 58.3814 26.3423 58.0544 25.2946C57.7274 24.2468 58.304 23.1471 59.3518 22.8201Z" fill="white"/>
<path d="M105.926 70.7049L105.239 71.4L108.14 74.335H86.2654C88.2541 72.1479 89.2625 69.8675 89.2402 67.5411C89.1904 62.3787 84.2941 57.8483 79.9737 53.8514C77.2733 51.3529 74.723 48.9932 74.0053 47L73.0921 47.3363C73.8914 49.5561 76.406 51.8829 79.3181 54.577C83.492 58.4386 88.2229 62.8157 88.2685 67.5508C88.2908 69.8812 87.1887 72.1023 84.9161 74.335H73.7585C73.8521 73.2914 74.1634 72.1917 74.7259 70.9274C74.8994 70.5378 75.0797 70.1804 75.25 69.8422C75.9688 68.4146 76.5897 67.1818 75.7676 65.3776L74.9482 65.76C75.587 67.1618 75.1328 68.0632 74.4458 69.428C74.2692 69.7783 74.083 70.1489 73.9032 70.5527C73.2836 71.9449 72.9455 73.1642 72.8523 74.335H56.5473L73.3575 50.7519L72.5696 50.177L55 74.8249L72.8483 99.6312L73.634 99.053L56.557 75.3182H72.8325C72.8814 76.596 73.2224 77.9176 73.9033 79.4473C74.083 79.8511 74.2696 80.2214 74.4459 80.572C75.1329 81.9365 75.5871 82.8379 74.9483 84.2397L75.7677 84.6215C76.5898 82.8176 75.9689 81.5848 75.2501 80.1572C75.0798 79.8193 74.8995 79.4621 74.726 79.0721C74.101 77.6678 73.7848 76.4655 73.7351 75.3183H84.9086C87.177 77.5447 88.2813 79.7717 88.2685 82.122C88.2425 86.9451 83.4733 91.4341 79.2655 95.3947C76.3791 98.1116 73.8863 100.458 73.0921 102.663L74.0053 103C74.7192 101.017 77.249 98.6355 79.9276 96.1145C84.2794 92.0184 89.212 87.3758 89.2402 82.1274C89.2528 79.7854 88.2421 77.5004 86.2579 75.3183H108.14L105.239 78.2524L105.926 78.9481L110 74.8267L105.926 70.7049Z" fill="white"/>
</svg>
