<svg width="146" height="58" viewBox="0 0 146 58" fill="none" xmlns="http://www.w3.org/2000/svg">
<g clip-path="url(#clip0_6102_7086)">
<path d="M4.32377 28.5483C2.99075 27.7618 1.93117 26.6781 1.16212 25.3322C0.39307 23.9864 0 22.5007 0 20.9101C0 19.3195 0.39307 17.8339 1.16212 16.488C1.93117 15.1421 2.99075 14.0584 4.32377 13.2719C5.63971 12.4854 7.09236 12.0833 8.64755 12.0833C10.2198 12.0833 11.6725 12.4854 13.0055 13.2894C14.3214 14.0934 15.3639 15.1596 16.133 16.5055L14.8341 18.9525H12.9542C12.5953 18.0611 12.0314 17.3444 11.2452 16.8026C10.4762 16.2608 9.60459 15.9811 8.64755 15.9811C7.79305 15.9811 7.00691 16.2083 6.28913 16.6453C5.57135 17.0823 4.99028 17.694 4.56303 18.4456C4.13578 19.1972 3.9307 20.0187 3.9307 20.9101C3.9307 21.8015 4.13578 22.623 4.56303 23.3746C4.99028 24.1262 5.57135 24.738 6.28913 25.1749C7.00691 25.6119 7.81014 25.8391 8.64755 25.8391C9.60459 25.8391 10.4762 25.5595 11.2452 25.0176C12.0143 24.4758 12.5783 23.7591 12.9542 22.8677H14.817L16.1159 25.3148C15.3639 26.6606 14.3214 27.7268 12.9884 28.5308C11.6725 29.3349 10.2198 29.7369 8.63046 29.7369C7.09236 29.7369 5.63971 29.3349 4.32377 28.5483ZM33.992 27.2199V29.3698H30.7278L27.2928 24.7554H24.7122V29.3698H20.7815V12.4504H27.7884C28.8821 12.4504 29.8904 12.7301 30.8133 13.2719C31.7362 13.8137 32.4881 14.5653 33.035 15.5092C33.5819 16.453 33.8553 17.4843 33.8553 18.5854C33.8553 19.5992 33.6332 20.5605 33.1717 21.4345C32.7103 22.3259 32.0951 23.0425 31.3089 23.6193L33.992 27.2199ZM24.7293 20.8577H27.9251C28.472 20.8577 28.9505 20.6305 29.3606 20.176C29.7708 19.7216 29.9588 19.1972 29.9588 18.5854C29.9588 17.9737 29.7537 17.4493 29.3606 16.9949C28.9505 16.5579 28.4891 16.3307 27.9251 16.3307H24.7293V20.8577ZM42.0585 16.3307V18.935L46.5019 19.4244V22.3434L42.0585 22.8328V25.4721H49.749V29.3698H38.1449V12.4504H49.749V16.3482H42.0585V16.3307ZM68.1379 27.2199V29.3698H64.549L63.3014 26.0314L62.4469 26.4159H58.0548L57.2003 26.0314L55.9527 29.3698H52.3638V27.2199L57.9352 12.4504H62.5665L68.1379 27.2199ZM60.2423 17.9562L58.5162 22.5182H61.9684L60.2423 17.9562ZM81.8099 15.8588L77.2981 16.3482V29.3873H73.3674V16.3307L68.8557 15.8413V12.4504H81.8099V15.8588ZM89.2782 12.4504V29.3698H85.3475V12.4504H89.2782ZM108.248 12.4504V14.6352L102.694 29.3873H98.3872L92.7988 14.6178V12.4504H96.251L100.523 23.7417L104.779 12.4504H108.248ZM114.742 16.3307V18.935L119.186 19.4244V22.3434L114.742 22.8328V25.4721H122.433V29.3698H110.829V12.4504H122.433V16.3482H114.742V16.3307ZM105.702 37.4275L98.1651 46.5689L105.275 47.1807V50.4667H93.2944V46.5689L100.831 37.4275L93.7217 36.8158V33.5298H105.702V37.4275ZM133.08 37.8295C131.764 37.043 130.704 35.9768 129.918 34.6309C129.132 33.2851 128.756 31.8168 128.756 30.2438C128.756 28.6532 129.149 27.1675 129.918 25.8042C130.704 24.4408 131.747 23.3571 133.08 22.5706C134.396 21.7666 135.849 21.382 137.404 21.382C138.942 21.382 140.377 21.784 141.71 22.5706C143.026 23.3746 144.086 24.4408 144.855 25.8042C145.624 27.1675 146.017 28.6532 146.017 30.2438C146.017 31.8168 145.624 33.2851 144.855 34.6309C144.086 35.9768 143.026 37.043 141.71 37.8295C140.394 38.6161 138.959 39.0181 137.404 39.0181C135.849 39.0181 134.396 38.6161 133.08 37.8295ZM139.762 34.4561C140.48 34.0192 141.044 33.4249 141.471 32.6733C141.881 31.9392 142.103 31.1177 142.103 30.2263C142.103 29.3174 141.898 28.4959 141.471 27.7443C141.061 26.9927 140.48 26.381 139.762 25.9265C139.044 25.4721 138.258 25.2448 137.404 25.2448C136.549 25.2448 135.763 25.4721 135.045 25.909C134.328 26.346 133.746 26.9578 133.319 27.7093C132.892 28.4609 132.687 29.2824 132.687 30.1738C132.687 31.0653 132.892 31.8868 133.319 32.6383C133.746 33.3899 134.328 34.0017 135.045 34.4387C135.763 34.8756 136.566 35.1029 137.404 35.1029C138.241 35.1029 139.044 34.8931 139.762 34.4561ZM112.897 56.8115C111.581 56.0249 110.521 54.9587 109.735 53.6128C108.949 52.267 108.573 50.7988 108.573 49.2257C108.573 47.6351 108.966 46.1494 109.735 44.7861C110.521 43.4227 111.564 42.3391 112.897 41.5525C114.213 40.7485 115.665 40.364 117.22 40.364C118.759 40.364 120.194 40.766 121.527 41.5525C122.843 42.3565 123.903 43.4227 124.672 44.7861C125.441 46.1494 125.834 47.6351 125.834 49.2257C125.834 50.7988 125.441 52.267 124.672 53.6128C123.903 54.9587 122.843 56.0249 121.527 56.8115C120.211 57.598 118.776 58 117.22 58C115.665 58 114.23 57.598 112.897 56.8115ZM119.579 53.4381C120.297 53.0011 120.861 52.4068 121.288 51.6552C121.698 50.9211 121.92 50.0996 121.92 49.2082C121.92 48.2993 121.715 47.4778 121.288 46.7262C120.861 45.9746 120.297 45.3629 119.579 44.9084C118.861 44.454 118.075 44.2268 117.22 44.2268C116.366 44.2268 115.58 44.454 114.862 44.8909C114.144 45.3279 113.563 45.9397 113.136 46.6913C112.709 47.4428 112.504 48.2643 112.504 49.1558C112.504 50.0472 112.709 50.8687 113.136 51.6203C113.563 52.3719 114.144 52.9836 114.862 53.4206C115.58 53.8575 116.383 54.0848 117.22 54.0848C118.075 54.1023 118.861 53.875 119.579 53.4381Z" fill="white"/>
</g>
<defs>
<clipPath id="clip0_6102_7086">
<rect width="146" height="58" fill="white"/>
</clipPath>
</defs>
</svg>
