<?xml version="1.0" encoding="UTF-8"?>
<svg id="Layer_2" data-name="Layer 2" xmlns="http://www.w3.org/2000/svg" viewBox="0 0 294.42 209.36">
  <defs>
    <style>
      .cls-1 {
        fill: none;
      }

      .cls-2 {
        fill: #fff;
      }

      .cls-3 {
        fill: #314ae2;
      }
    </style>
  </defs>
  <g id="Circles">
    <g>
      <path class="cls-2" d="M253.96,94.12l31.97-31.97C247.37,24.71,197.29,5.98,147.21,5.98S47.05,24.71,8.49,62.15l31.97,31.97c59.49-57.25,154.01-57.24,213.5,0Z"/>
      <g>
        <path class="cls-3" d="M96.44,31.42l8.56-2.4.73,2.6-5.76,1.62.61,2.19,3.46-.59.54,1.94-3.26,1.29.62,2.2,5.76-1.61.73,2.6-8.56,2.4-3.44-12.25Z"/>
        <path class="cls-3" d="M108.6,36.83l2.85-.61c.18.94,1.31,1.5,2.5,1.24,1.14-.24,1.92-1.12,1.74-1.93-.37-1.73-6.66.95-7.58-3.32-.47-2.21,1.2-4.45,3.73-4.99,2.47-.53,4.89.83,5.36,3.04l-2.81.6c-.15-.73-1.02-1.14-1.99-.94-.98.21-1.63.95-1.48,1.68.37,1.71,6.69-1.1,7.62,3.31.52,2.32-1.28,4.7-4,5.29-2.76.59-5.43-.92-5.94-3.38Z"/>
        <path class="cls-3" d="M120.18,32.23c-.47-3.63,2.19-7,5.61-7.46,2.36-.32,4.68.8,6.11,2.45l-.55,1.47-1.82.24c-.76-.89-2.09-1.46-3.35-1.29-1.86.25-3.31,2.17-3.04,4.23.27,2.02,2.12,3.46,4.14,3.19,1.34-.18,2.45-1.04,2.79-2.23l-3.91.52-.36-2.69,5.72-.77,1.83,2.44c-.43,2.83-2.68,5.19-5.68,5.59-3.65.48-7.02-2.08-7.48-5.7Z"/>
        <path class="cls-3" d="M150.65,28.02c.07,2.55-1.95,4.68-4.48,4.75l-2.51.06.09,3.47-2.9.07-.33-12.71,5.34-.14c2.56-.06,4.72,1.95,4.79,4.49ZM147.64,28.1c-.03-1.14-.76-1.89-1.61-1.86l-2.52.06.1,3.84,2.52-.07c.85-.02,1.54-.82,1.51-1.97Z"/>
        <path class="cls-3" d="M162.87,35l-.07,1.62-2.47-.11-.81-2.71-.82.33-3.75-.16-.78-.39-1.04,2.63-2.47-.11.07-1.61,4.74-10.93,3.6.15,3.8,11.29ZM158.76,31.39l-1.59-5.41-2.04,5.25,3.64.15Z"/>
        <path class="cls-3" d="M174.65,36.36l-.19,1.61-2.36-.28-2.07-3.74-2.31-.27-.4,3.44-2.89-.34,1.48-12.64,5.31.62c2.54.3,4.4,2.6,4.1,5.13-.19,1.61-1.18,2.94-2.54,3.62l1.88,2.84ZM168.03,30.99l2.51.3c.85.09,1.64-.6,1.77-1.73.14-1.13-.48-1.98-1.33-2.08l-2.51-.3-.45,3.81Z"/>
        <path class="cls-3" d="M187.92,38.86l-.31,1.59-2.43-.48-.4-2.8-.86.2-3.68-.72-.71-.51-1.42,2.44-2.43-.47.31-1.59,6.32-10.09,3.53.69,2.07,11.73ZM184.4,34.67l-.76-5.58-2.81,4.88,3.57.7Z"/>
        <path class="cls-3" d="M199.71,32.9l-3.51-.55-2.54,9.7-2.82-.74,2.54-9.7-3.32-1.25.6-2.27,9.64,2.53-.59,2.27Z"/>
      </g>
      <path class="cls-1" d="M253.96,94.12l31.97-31.97C247.37,24.71,197.29,5.98,147.21,5.98S47.05,24.71,8.49,62.15l31.97,31.97c59.49-57.25,154.01-57.24,213.5,0Z"/>
      <path class="cls-1" d="M55.11,108.78l18.07,18.07,1.41,1.41,21.61,21.61,1.41,1.41,49.59,49.59,49.59-49.59,1.41-1.41,21.61-21.61,1.41-1.41,18.07-18.07,1.41-1.41,9-9s0,0,0,0c-28.57-27.45-65.54-41.19-102.51-41.19s-73.94,13.73-102.51,41.19c0,0,0,0,0,0l9,9,1.41,1.41Z"/>
      <path class="cls-3" d="M44.7,98.36c28.57-27.45,65.54-41.19,102.51-41.19s73.93,13.73,102.51,41.19c0,0,0,0,0,0l40.45-40.45s0,0,0,0c-79.46-77.2-206.46-77.2-285.93,0,0,0,0,0,0,0l40.45,40.45s0,0,0,0ZM147.21,5.98c50.08,0,100.16,18.73,138.72,56.16l-31.97,31.97c-59.49-57.24-154.02-57.25-213.5,0l-31.97-31.97C47.05,24.71,97.13,5.98,147.21,5.98Z"/>
      <polygon class="cls-3" points="4.25 66.39 4.24 66.39 36.21 98.36 36.22 98.36 4.25 66.39"/>
      <path class="cls-3" d="M251.87,100.45c-.71-.71-1.43-1.4-2.14-2.09l-9,9-1.41,1.41-18.07,18.07-1.41,1.41-21.61,21.61-1.41,1.41-49.59,49.59-49.59-49.59-1.41-1.41-21.61-21.61-1.41-1.41-18.07-18.07-1.41-1.41-9-9c-.72.69-1.44,1.38-2.14,2.09-.71.71-1.4,1.43-2.09,2.15,0,0,0,0,0,0l9,9,1.41,1.41,18.07,18.07,1.41,1.41,21.61,21.61,1.41,1.41,49.59,49.59,4.24,4.24,4.24-4.24,49.59-49.59,1.41-1.41,21.61-21.61,1.41-1.41,18.07-18.07,1.41-1.41,9-9s0,0,0,0c-.69-.72-1.39-1.44-2.09-2.15Z"/>
      <polygon class="cls-3" points="258.2 98.36 258.21 98.36 290.18 66.39 290.17 66.39 258.2 98.36"/>
      <path class="cls-3" d="M4.25,66.39l31.97,31.97s0,0,0,0l4.24,4.24s0,0,0,0c.69-.72,1.39-1.44,2.09-2.15.71-.71,1.43-1.4,2.14-2.09L4.24,57.91c-.72.7-1.44,1.38-2.14,2.09-.71.71-1.4,1.43-2.09,2.15,0,0,0,0,0,0l4.24,4.24s0,0,0,0Z"/>
      <path class="cls-3" d="M251.87,100.45c.71.71,1.4,1.43,2.09,2.15,0,0,0,0,0,0l4.24-4.24s0,0,0,0l31.97-31.97s0,0,0,0l4.24-4.24s0,0,0,0c-.7-.72-1.39-1.44-2.09-2.15-.71-.71-1.43-1.4-2.14-2.09l-40.45,40.45c.72.69,1.44,1.38,2.14,2.09Z"/>
    </g>
  </g>
</svg>