<?xml version="1.0" encoding="UTF-8"?>
<svg id="Layer_2" data-name="Layer 2" xmlns="http://www.w3.org/2000/svg" viewBox="0 0 209.35 294.41">
  <defs>
    <style>
      .cls-1 {
        fill: none;
      }

      .cls-2 {
        fill: #fff;
      }

      .cls-3 {
        fill: #314ae2;
      }
    </style>
  </defs>
  <g id="Circles">
    <g>
      <path class="cls-2" d="M147.21,8.48l-31.97,31.97c57.24,59.49,57.24,154.02,0,213.5l31.97,31.97c36.29-37.37,56.25-86.51,56.25-138.72s-19.96-101.35-56.25-138.72Z"/>
      <path class="cls-3" d="M143.93,47.54l-1.28.97-1.43-1.89,1.64-6.13-1.45-.16-3.15,2.38-1.75-2.32,10.17-7.69,1.75,2.32-3.85,2.91,6.56.65,1.35,1.78-1.32,1-5.59-.66-1.66,6.83Z"/>
      <path class="cls-3" d="M148.45,45.59c3.08-1.97,7.22-1.06,9.19,1.99,1.97,3.04,1.08,7.17-1.98,9.17-3.06,2-7.18,1.11-9.17-1.96-1.99-3.09-1.12-7.22,1.96-9.19ZM154.04,54.23c1.73-1.14,2.26-3.41,1.16-5.1-1.1-1.7-3.39-2.16-5.13-1.04-1.75,1.12-2.26,3.41-1.16,5.12,1.1,1.71,3.39,2.16,5.12,1.02Z"/>
      <path class="cls-3" d="M169.02,68.3l-11.3,5.89-1.35-2.58,7.16-3.69-6.54.02-.9-1.74,3.76-5.35-7.12,3.75-1.35-2.59,11.3-5.89,1.41,2.71-4.68,6.73,8.2.02,1.41,2.71Z"/>
      <path class="cls-3" d="M175.69,84.27l-11.8,4.79-1.09-2.7,7.47-2.99-6.51-.6-.74-1.82,4.25-4.97-7.44,3.06-1.09-2.7,11.8-4.8,1.15,2.84-5.3,6.26,8.16.79,1.15,2.83Z"/>
      <path class="cls-3" d="M169.88,89.77l6.95-2.13.85,2.78-6.95,2.13c-1.51.47-2.35,2-1.89,3.51.46,1.49,2.01,2.29,3.52,1.81l6.95-2.13.85,2.78-6.95,2.13c-3,.94-6.22-.75-7.14-3.74-.92-3.01.79-6.23,3.8-7.13Z"/>
      <path class="cls-3" d="M183.65,113.42l-12.46,2.74-.62-2.83,6.88-7.67-8.15,1.88-.63-2.85,12.46-2.74.62,2.83-6.87,7.67,8.15-1.88.62,2.85Z"/>
      <path class="cls-3" d="M184.13,116.72l.45,2.88-12.58,1.99-.45-2.87,12.58-1.99Z"/>
      <path class="cls-3" d="M175.11,134.26l-1.59.17-.25-2.35,4.57-4.4-1.15-.89-3.93.41-.3-2.9,12.67-1.33.3,2.9-4.8.5,5.28,3.95.23,2.22-1.64.18-4.45-3.45-4.95,4.98Z"/>
      <path class="cls-3" d="M175.64,147.41l-1.62.05-.08-2.47,2.64-1.01-.39-.79-.13-3.75.34-.81-2.7-.84-.08-2.47,1.62-.06,11.24,3.91.12,3.6-10.96,4.64ZM178.93,143.04l5.26-1.99-5.38-1.64.12,3.63Z"/>
      <path class="cls-3" d="M184.04,157.5l-.25-3.54-10.02-.32.09-2.91,10.02.32.48-3.52,2.35.07-.32,9.97-2.35-.07Z"/>
      <path class="cls-3" d="M186.14,160.32l-.24,2.9-12.7-1.07.25-2.9,12.7,1.08Z"/>
      <path class="cls-3" d="M179.42,165.13c3.61.54,6.14,3.93,5.63,7.53-.52,3.58-3.89,6.11-7.51,5.61-3.62-.5-6.15-3.88-5.63-7.5.52-3.64,3.9-6.18,7.52-5.64ZM177.96,175.31c2.06.28,3.94-1.09,4.23-3.08.29-2-1.14-3.85-3.19-4.15-2.05-.3-3.94,1.09-4.23,3.1-.29,2.02,1.14,3.86,3.19,4.13Z"/>
      <path class="cls-3" d="M180.54,193.73l-12.4-2.89.65-2.81,9.49-3.95-8.15-1.8.66-2.83,12.4,2.88-.66,2.82-9.49,3.95,8.15,1.8-.66,2.83Z"/>
      <path class="cls-3" d="M171.61,194.13l-.87,2.78c-.91-.31-1.96.39-2.33,1.56-.35,1.11.02,2.22.82,2.47,1.69.53,2.48-6.26,6.64-4.94,2.15.67,3.27,3.24,2.49,5.71-.76,2.41-3.14,3.84-5.29,3.16l.87-2.74c.71.22,1.5-.33,1.79-1.27.31-.95,0-1.89-.72-2.12-1.66-.53-2.35,6.36-6.65,4.98-2.28-.7-3.46-3.44-2.62-6.09.85-2.69,3.48-4.27,5.87-3.49Z"/>
      <path class="cls-3" d="M167.66,216.79c-2.37-.94-3.56-3.64-2.63-5.99l.92-2.34-3.24-1.28,1.07-2.71,11.87,4.68-1.97,4.99c-.94,2.39-3.65,3.59-6.03,2.66ZM168.77,213.97c1.07.43,2.04.04,2.35-.75l.93-2.36-3.58-1.41-.93,2.36c-.32.79.15,1.74,1.22,2.16Z"/>
      <path class="cls-3" d="M156.48,225.28l-1.46-.7,1.06-2.24,2.82.31v-.88s1.62-3.39,1.62-3.39l.67-.57-2.02-1.99,1.06-2.24,1.47.69,8.22,8.63-1.54,3.26-11.89-.9ZM161.41,222.9l5.6.64-4.04-3.93-1.56,3.29Z"/>
      <path class="cls-3" d="M150.65,235.67l-1.41-.79,1.17-2.08,4.25-.46,1.15-2.03-3.03-1.71,1.43-2.53,11.09,6.26-2.63,4.66c-1.26,2.23-4.11,3.05-6.33,1.8-1.41-.79-2.25-2.23-2.35-3.75l-3.35.64ZM158.16,231.64l-1.24,2.2c-.42.74-.09,1.75.91,2.31,1,.56,2.01.32,2.43-.43l1.24-2.2-3.34-1.89Z"/>
      <path class="cls-3" d="M143.19,246.93l-1.35-.9,1.38-2.06,2.74.72.14-.87,2.08-3.12.75-.46-1.71-2.26,1.38-2.05,1.34.9,6.86,9.74-2,3-11.62-2.63ZM148.42,245.3l5.45,1.46-3.42-4.48-2.03,3.02Z"/>
      <path class="cls-3" d="M144.15,260.04l1.85-3.02-7.95-6.09,1.77-2.31,7.95,6.09,2.43-2.58,1.86,1.42-6.05,7.91-1.86-1.43Z"/>
      <path class="cls-1" d="M115.24,253.95l31.97,31.97c36.29-37.37,56.25-86.51,56.25-138.72s-19.96-101.34-56.25-138.72l-31.97,31.97c57.24,59.49,57.24,154.01,0,213.5Z"/>
      <polygon class="cls-3" points="147.21 8.48 115.24 40.45 115.24 40.45 147.21 8.48 147.21 8.48"/>
      <polygon class="cls-3" points="142.96 290.17 110.99 258.2 110.99 258.2 142.96 290.17 142.96 290.17"/>
      <path class="cls-3" d="M151.45,4.24s0,0,0,0c-.7-.72-1.39-1.44-2.09-2.15-.71-.71-1.43-1.4-2.14-2.09l-40.45,40.45L4.24,142.97l-4.24,4.24,4.24,4.24,102.51,102.51,4.24,4.24s0,0,0,0l31.97,31.97s0,0,0,0l4.24,4.24s0,0,0,0c.72-.7,1.44-1.38,2.15-2.09.71-.71,1.4-1.43,2.09-2.14h0c77.2-79.46,77.2-206.46,0-285.93ZM8.48,147.21L111,44.7c54.9,57.15,54.9,147.87,0,205.01,0,0,0,0,0,0L8.48,147.21ZM147.21,285.92l-31.97-31.97c57.24-59.49,57.24-154.01,0-213.5,0,0,0,0,0,0l31.97-31.97s0,0,0,0c36.29,37.37,56.25,86.51,56.25,138.72s-19.96,101.35-56.25,138.72Z"/>
    </g>
  </g>
</svg>