<?xml version="1.0" encoding="UTF-8"?>
<svg id="Layer_2" data-name="Layer 2" xmlns="http://www.w3.org/2000/svg" viewBox="0 0 294.4 209.36">
  <defs>
    <style>
      .cls-1 {
        fill: none;
      }

      .cls-2 {
        fill: #fff;
      }

      .cls-3 {
        fill: #314ae2;
      }
    </style>
  </defs>
  <g id="Circles">
    <g>
      <path class="cls-2" d="M147.2,158.17c-38.51,0-77.01-14.32-106.75-42.94l-31.97,31.97c77.12,74.86,200.32,74.86,277.44,0l-31.97-31.97c-29.74,28.62-68.24,42.94-106.75,42.94Z"/>
      <path class="cls-3" d="M43.43,146.02c2.05-3.02,6.21-3.83,9.23-1.81,3,2.01,3.82,6.13,1.79,9.18-2.02,3.04-6.16,3.86-9.2,1.83-3.05-2.04-3.88-6.18-1.82-9.2ZM51.98,151.73c1.14-1.73.73-4.01-.95-5.14-1.68-1.12-3.97-.64-5.13,1.08-1.16,1.71-.73,4.01.96,5.14,1.69,1.13,3.97.64,5.11-1.09Z"/>
      <path class="cls-3" d="M63.07,163.71l-.8,1.41-2.07-1.16-.46-4.25-2.03-1.13-1.7,3.03-2.53-1.42,6.23-11.11,4.65,2.61c2.23,1.25,3.05,4.1,1.8,6.32-.8,1.41-2.22,2.26-3.74,2.36l.64,3.34ZM59.04,156.2l2.2,1.24c.74.42,1.75.08,2.3-.92.56-.99.32-2.01-.42-2.43l-2.2-1.24-1.88,3.34Z"/>
      <path class="cls-3" d="M67.1,160.46c1.55-3.32,5.59-4.74,8.72-3.29,2.16.99,3.51,3.18,3.83,5.34l-1.25.94-1.66-.77c-.17-1.16-.98-2.36-2.13-2.89-1.7-.78-3.95.06-4.82,1.95-.85,1.86-.07,4.06,1.77,4.92,1.22.56,2.63.43,3.54-.39l-3.58-1.66,1.14-2.46,5.23,2.42.24,3.04c-1.87,2.16-5.04,2.95-7.77,1.68-3.33-1.54-4.8-5.51-3.25-8.83Z"/>
      <path class="cls-3" d="M89.7,175.01l-.57,1.52-2.32-.86.06-2.83-.87.06-3.51-1.3-.62-.62-1.8,2.19-2.32-.86.56-1.51,7.86-8.94,3.38,1.25.15,11.9ZM86.9,170.31l.14-5.62-3.55,4.36,3.41,1.26Z"/>
      <path class="cls-3" d="M106.2,168.23l-3.47,12.25-2.77-.78-3.48-9.66-2.19,8.06-2.79-.79,3.47-12.25,2.77.79,3.48,9.66,2.19-8.06,2.79.79Z"/>
      <path class="cls-3" d="M108.75,168.75l2.83.64-2.79,12.43-2.83-.64,2.79-12.43Z"/>
      <path class="cls-3" d="M112.13,178.23l2.86.48c-.18.95.65,1.88,1.85,2.08,1.14.2,2.19-.33,2.33-1.15.3-1.74-6.52-1.59-5.79-5.89.38-2.22,2.76-3.68,5.3-3.26,2.49.42,4.22,2.58,3.84,4.81l-2.83-.48c.12-.74-.53-1.44-1.5-1.6-.98-.17-1.87.27-1.99,1.01-.29,1.72,6.6,1.45,5.83,5.9-.38,2.35-2.93,3.9-5.67,3.44-2.77-.47-4.69-2.86-4.25-5.33Z"/>
      <path class="cls-3" d="M135.7,183.98l-.15,1.61-2.46-.24-.67-2.75-.83.29-3.73-.35-.76-.44-1.18,2.58-2.46-.23.16-1.61,5.31-10.68,3.58.34,3.19,11.48ZM131.8,180.15l-1.3-5.49-2.32,5.14,3.62.35Z"/>
      <path class="cls-3" d="M146.34,175.51l-3.53.25-.32,10.04-2.91-.09.32-10.04-3.51-.47.08-2.35,9.95.31-.07,2.35Z"/>
      <path class="cls-3" d="M148.32,173.12l2.9-.05.21,12.73-2.9.05-.21-12.73Z"/>
      <path class="cls-3" d="M153.72,179.47c-.27-3.64,2.48-6.84,6.1-7.13,3.61-.27,6.81,2.47,7.12,6.12.31,3.64-2.43,6.84-6.07,7.12-3.66.28-6.88-2.47-7.15-6.12ZM163.97,178.69c-.18-2.07-1.93-3.62-3.94-3.46-2.01.15-3.51,1.95-3.34,4.01.16,2.07,1.93,3.61,3.95,3.46,2.03-.16,3.51-1.95,3.33-4.01Z"/>
      <path class="cls-3" d="M179.92,169.93l2.06,12.57-2.84.47-7.25-7.26,1.44,8.22-2.86.47-2.06-12.56,2.85-.47,7.25,7.26-1.44-8.22,2.86-.48Z"/>
      <path class="cls-3" d="M183.79,177.77l2.82-.69c.21.94,1.35,1.47,2.53,1.18,1.13-.28,1.88-1.17,1.69-1.98-.41-1.71-6.62,1.12-7.65-3.11-.53-2.19,1.08-4.47,3.59-5.08,2.46-.6,4.9.7,5.43,2.89l-2.79.68c-.17-.73-1.05-1.11-2.01-.88-.97.24-1.61.99-1.43,1.71.41,1.69,6.64-1.27,7.69,3.11.58,2.31-1.15,4.73-3.85,5.38-2.73.67-5.44-.77-6.01-3.21Z"/>
      <path class="cls-3" d="M204.47,167.95c.78,2.42-.56,5.04-2.97,5.81l-2.39.76,1.06,3.3-2.77.89-3.87-12.12,5.09-1.63c2.44-.78,5.08.56,5.85,2.98ZM201.6,168.86c-.35-1.09-1.26-1.6-2.07-1.34l-2.41.76,1.17,3.65,2.41-.77c.81-.26,1.25-1.22.9-2.31Z"/>
      <path class="cls-3" d="M218.14,169.62l.59,1.51-2.3.89-1.85-2.15-.61.63-3.48,1.35-.88-.05.11,2.82-2.3.89-.59-1.5-.08-11.9,3.35-1.31,8.04,8.8ZM212.93,167.96l-3.64-4.3.26,5.62,3.39-1.32Z"/>
      <path class="cls-3" d="M229.45,164.25l.7,1.45-2.15,1.03-3.74-2.05-2.1,1,1.5,3.13-2.62,1.25-5.48-11.48,4.82-2.3c2.31-1.1,5.11-.14,6.2,2.15.7,1.46.56,3.11-.23,4.41l3.1,1.4ZM221,163.23l2.28-1.08c.77-.37,1.07-1.38.58-2.41-.5-1.03-1.46-1.42-2.23-1.05l-2.28,1.09,1.65,3.45Z"/>
      <path class="cls-3" d="M241.73,157.33l.8,1.4-2.15,1.23-2.13-1.86-.52.71-3.25,1.86-.88.08.52,2.78-2.15,1.23-.8-1.4-1.8-11.77,3.12-1.79,9.23,7.53ZM236.33,156.46l-4.23-3.73,1.07,5.53,3.16-1.8Z"/>
      <path class="cls-3" d="M245.51,144.35l-2.75,2.24,5.5,8.36-2.43,1.6-5.5-8.36-3.14,1.63-1.28-1.96,8.32-5.47,1.29,1.96Z"/>
      <path class="cls-1" d="M40.46,115.23l-31.97,31.97c77.12,74.86,200.31,74.86,277.44,0l-31.97-31.97c-29.74,28.62-68.24,42.94-106.75,42.94s-77-14.32-106.75-42.94Z"/>
      <polygon class="cls-3" points="40.45 115.23 8.48 147.2 8.48 147.2 40.46 115.23 40.45 115.23"/>
      <polygon class="cls-3" points="285.92 147.2 253.95 115.23 253.95 115.23 285.92 147.2 285.92 147.2"/>
      <path class="cls-3" d="M253.95,106.75L151.44,4.24l-4.24-4.24-4.24,4.24L40.45,106.75,0,147.2c.7.72,1.38,1.44,2.09,2.14s1.43,1.4,2.15,2.09c0,0,0,0,0,0,39.73,38.6,91.34,57.91,142.96,57.91s103.23-19.31,142.96-57.91c0,0,0,0,0,0,.72-.7,1.44-1.38,2.15-2.09s1.4-1.43,2.09-2.14l-40.45-40.45ZM147.2,8.48l102.51,102.51c-57.15,54.9-147.86,54.9-205.01,0L147.2,8.48ZM285.92,147.2c-77.12,74.86-200.31,74.86-277.44,0,0,0,0,0,0,0l31.97-31.97s0,0,0,0c29.74,28.62,68.24,42.94,106.75,42.94s77-14.32,106.75-42.94c0,0,0,0,0,0l31.97,31.97s0,0,0,0Z"/>
    </g>
  </g>
</svg>