<?xml version="1.0" encoding="UTF-8"?>
<svg id="Layer_2" data-name="Layer 2" xmlns="http://www.w3.org/2000/svg" viewBox="0 0 209.35 294.41">
  <defs>
    <style>
      .cls-1 {
        fill: #fff;
      }

      .cls-2 {
        fill: #314ae2;
      }
    </style>
  </defs>
  <g id="Circles">
    <g>
      <path class="cls-1" d="M38.19,207.26c-1.07.4-1.54,1.34-1.24,2.13l.89,2.37,3.59-1.35-.89-2.36c-.3-.8-1.28-1.19-2.36-.79Z"/>
      <path class="cls-1" d="M28.32,129.72c-1.14-.1-1.97.55-2.04,1.4l-.21,2.53,3.83.32.22-2.52c.07-.85-.65-1.63-1.79-1.73Z"/>
      <path class="cls-1" d="M34.31,195.29c-1.1.33-1.63,1.23-1.38,2.05l.72,2.42,3.68-1.1-.73-2.42c-.24-.82-1.2-1.27-2.29-.95Z"/>
      <path class="cls-1" d="M32.41,105.35c-1.12-.26-2.02.27-2.21,1.1l-.56,2.46,3.74.85.56-2.47c.19-.83-.42-1.7-1.53-1.95Z"/>
      <path class="cls-1" d="M36.81,182.51c-.42-1.99-2.4-3.22-4.42-2.77-2.02.45-3.32,2.38-2.9,4.35.42,1.97,2.4,3.23,4.43,2.8,2.03-.43,3.32-2.38,2.9-4.37Z"/>
      <polygon class="cls-1" points="32.24 122.66 32.78 119.07 27.24 120.07 32.24 122.66"/>
      <polygon class="cls-1" points="37.72 97.34 38.8 93.86 33.17 94.03 37.72 97.34"/>
      <path class="cls-1" d="M62.14,285.92l31.97-31.97c-57.24-59.49-57.24-154.01,0-213.5l-31.97-31.97c-74.86,77.12-74.86,200.32,0,277.44ZM36.45,77.71l2.19.83-.9,3.42,9.36,3.54-1.03,2.71-9.36-3.54-1.58,3.17-2.19-.83,3.52-9.31ZM31.46,91.62l11.88-.81,1.54.48-.73,2.36-2.83.1.12.87-1.1,3.58-.58.66,2.28,1.68-.73,2.36-1.55-.47-9.36-7.36,1.06-3.44ZM27.53,105.94c.57-2.51,3.06-4.1,5.55-3.54,1.58.36,2.79,1.5,3.33,2.92l3.02-1.57,1.58.36-.53,2.32-3.94,1.66-.52,2.27,3.39.77-.65,2.84-12.42-2.83,1.19-5.22ZM25.19,117.93l11.62-2.56,1.6.24-.37,2.45-2.78.52.24.85-.56,3.7-.48.74,2.5,1.31-.36,2.45-1.6-.24-10.35-5.88.53-3.56ZM23.57,130.99c.22-2.56,2.46-4.49,5-4.28,2.54.21,4.45,2.46,4.24,4.99l-.21,2.5,3.46.29-.24,2.9-12.7-1.08.45-5.33ZM26.81,139.77l-.03,2.87c-.75,0-1.34.75-1.35,1.73-.01,1,.56,1.81,1.31,1.82,1.75.02.4-6.76,4.92-6.69,2.39,0,4.3,2.29,4.27,5.07-.03,2.82-2.1,5.09-4.6,5.04l.03-2.91c.96.03,1.76-.95,1.77-2.17.01-1.16-.67-2.12-1.51-2.12-1.76-.03-.55,6.71-4.92,6.66-2.26-.03-4.07-2.16-4.04-4.74.03-2.53,1.89-4.58,4.14-4.56ZM22.89,151.36l2.71-.14.3,5.98,2.27-.11.19-3.51,2.02-.1.54,3.48,2.29-.12-.3-5.98,2.71-.14.45,8.89-12.73.65-.45-8.9ZM24,169.03c-.31-2.44.75-4.74,2.57-6.12l1.95.76.18,1.39c-1.3.72-2.06,2.1-1.87,3.61.26,2.06,2.13,3.47,4.22,3.2,2.09-.27,3.54-2.1,3.28-4.16-.2-1.51-1.31-2.66-2.72-3.02l-.18-1.39,1.69-1.22c2.11.88,3.72,2.84,4.03,5.27.47,3.65-2.11,6.99-5.74,7.44-3.62.48-6.96-2.12-7.42-5.76ZM26.66,184.67c-.75-3.53,1.54-7.07,5.11-7.85,3.57-.78,7.1,1.51,7.87,5.09.76,3.59-1.53,7.14-5.11,7.89-3.58.74-7.12-1.58-7.87-5.13ZM30.36,198.2c-.74-2.45.64-5.07,3.08-5.8,1.55-.47,3.17-.08,4.33.9l1.86-2.85,1.55-.46.68,2.28-2.61,3.38.67,2.23,3.33-1,.84,2.79-12.19,3.65-1.53-5.12ZM36.33,215.43l-1.88-5c-.9-2.41.3-5.11,2.68-6,2.38-.9,5.07.31,5.96,2.67l.88,2.35,3.25-1.22,1.02,2.72-11.91,4.48Z"/>
      <path class="cls-2" d="M43.97,209.45l-.88-2.35c-.89-2.36-3.58-3.57-5.96-2.67-2.38.9-3.58,3.6-2.68,6l1.88,5,11.91-4.48-1.02-2.72-3.25,1.22ZM37.85,211.76l-.89-2.37c-.3-.8.17-1.73,1.24-2.13,1.07-.4,2.05-.02,2.36.79l.89,2.36-3.59,1.35Z"/>
      <path class="cls-2" d="M43.25,196.88l-3.33,1-.67-2.23,2.61-3.38-.68-2.28-1.55.46-1.86,2.85c-1.17-.98-2.78-1.37-4.33-.9-2.44.73-3.82,3.35-3.08,5.8l1.53,5.12,12.19-3.65-.84-2.79ZM33.65,199.76l-.72-2.42c-.25-.82.28-1.72,1.38-2.05,1.1-.33,2.05.13,2.29.95l.73,2.42-3.68,1.1Z"/>
      <path class="cls-2" d="M34.54,189.8c3.57-.75,5.86-4.3,5.11-7.89-.76-3.58-4.3-5.87-7.87-5.09-3.57.77-5.87,4.31-5.11,7.85.75,3.55,4.29,5.87,7.87,5.13ZM29.49,184.09c-.42-1.97.88-3.9,2.9-4.35,2.03-.45,4,.79,4.42,2.77.42,1.99-.87,3.94-2.9,4.37-2.03.43-4.01-.82-4.43-2.8Z"/>
      <path class="cls-2" d="M31.43,174.79c3.63-.45,6.2-3.8,5.74-7.44-.31-2.43-1.92-4.39-4.03-5.27l-1.69,1.22.18,1.39c1.4.37,2.52,1.51,2.72,3.02.26,2.05-1.19,3.89-3.28,4.16-2.09.26-3.96-1.14-4.22-3.2-.2-1.51.56-2.89,1.87-3.61l-.18-1.39-1.95-.76c-1.82,1.39-2.88,3.68-2.57,6.12.47,3.64,3.8,6.24,7.42,5.76Z"/>
      <polygon class="cls-2" points="35.62 150.72 32.91 150.86 33.21 156.84 30.93 156.96 30.38 153.48 28.37 153.59 28.18 157.1 25.91 157.21 25.6 151.23 22.89 151.36 23.34 160.26 36.08 159.61 35.62 150.72"/>
      <path class="cls-2" d="M26.7,149.07c4.37.05,3.15-6.68,4.92-6.66.83,0,1.52.96,1.51,2.12-.01,1.22-.81,2.2-1.77,2.17l-.03,2.91c2.51.05,4.57-2.22,4.6-5.04.03-2.79-1.89-5.06-4.27-5.07-4.51-.07-3.17,6.71-4.92,6.69-.74-.01-1.32-.82-1.31-1.82,0-.98.6-1.74,1.35-1.73l.03-2.87c-2.26-.02-4.12,2.03-4.14,4.56-.03,2.58,1.78,4.71,4.04,4.74Z"/>
      <path class="cls-2" d="M36.07,134.49l-3.46-.29.21-2.5c.21-2.53-1.7-4.77-4.24-4.99-2.54-.21-4.79,1.72-5,4.28l-.45,5.33,12.7,1.08.24-2.9ZM29.9,133.97l-3.83-.32.21-2.53c.07-.85.89-1.49,2.04-1.4,1.14.1,1.86.87,1.79,1.73l-.22,2.52Z"/>
      <path class="cls-2" d="M36.6,127.62l.36-2.45-2.5-1.31.48-.74.56-3.7-.24-.85,2.78-.52.37-2.45-1.6-.24-11.62,2.56-.53,3.56,10.35,5.88,1.6.24ZM32.24,122.66l-5-2.59,5.54-1-.54,3.59Z"/>
      <path class="cls-2" d="M39.41,111.15l-3.39-.77.52-2.27,3.94-1.66.53-2.32-1.58-.36-3.02,1.57c-.53-1.43-1.75-2.56-3.33-2.92-2.49-.56-4.98,1.03-5.55,3.54l-1.19,5.22,12.42,2.83.65-2.84ZM33.94,107.31l-.56,2.47-3.74-.85.56-2.46c.19-.84,1.1-1.36,2.21-1.1,1.11.25,1.72,1.12,1.53,1.95Z"/>
      <path class="cls-2" d="M41.3,102.89l.73-2.36-2.28-1.68.58-.66,1.1-3.58-.12-.87,2.83-.1.73-2.36-1.54-.48-11.88.81-1.06,3.44,9.36,7.36,1.55.47ZM37.72,97.34l-4.56-3.31,5.63-.17-1.07,3.48Z"/>
      <polygon class="cls-2" points="36.71 84.68 46.07 88.22 47.1 85.5 37.74 81.96 38.64 78.54 36.45 77.71 32.93 87.02 35.13 87.85 36.71 84.68"/>
      <polygon class="cls-2" points="98.36 258.2 66.39 290.17 66.39 290.17 98.36 258.2 98.36 258.2"/>
      <polygon class="cls-2" points="62.14 8.48 62.14 8.48 94.11 40.46 94.11 40.45 62.14 8.48"/>
      <path class="cls-2" d="M205.11,142.97L102.6,40.45,62.14,0c-.72.7-1.44,1.38-2.14,2.09-.71.71-1.4,1.43-2.09,2.15,0,0,0,0,0,0-77.2,79.46-77.2,206.46,0,285.92,0,0,0,0,0,0,.7.72,1.38,1.44,2.09,2.14.71.71,1.43,1.4,2.15,2.09,0,0,0,0,0,0l4.24-4.24s0,0,0,0l31.97-31.97s0,0,0,0l4.24-4.24,102.51-102.51,4.24-4.24-4.24-4.24ZM62.14,285.92c-74.86-77.12-74.86-200.32,0-277.44,0,0,0,0,0,0l31.97,31.97s0,0,0,0c-57.24,59.49-57.24,154.01,0,213.5l-31.97,31.97ZM98.36,249.72s0,0,0,0c-54.9-57.15-54.91-147.87,0-205.01l102.51,102.51-102.51,102.51Z"/>
    </g>
  </g>
</svg>